              <svg
                width="144"
                height="35"
                viewBox="0 0 144 35"
                fill="none"
                xmlns="http://www.w3.org/2000/svg"
              >
                <rect
                  x="1.06055"
                  y="0.0668945"
                  width="143"
                  height="30"
                  rx="4"
                  transform="rotate(1.83096 1.06055 0.0668945)"
                  fill="#9661FF"
                />
                <path
                  d="M18.4435 18.8958L18.5016 17.0783C18.5067 16.9189 18.5657 16.7863 18.6785 16.6805C18.796 16.5702 18.9345 16.5177 19.0939 16.5228C19.2533 16.5279 19.3859 16.5891 19.4915 16.7065C19.6019 16.8194 19.6546 16.9556 19.6495 17.115L19.5909 18.9461C19.586 19.101 19.6387 19.2349 19.7491 19.3479C19.8595 19.4608 19.9966 19.5199 20.1606 19.5252L21.3221 19.5623C21.4816 19.5674 21.6199 19.5171 21.7373 19.4114C21.8594 19.3013 21.923 19.1666 21.9281 19.0072L22.1445 12.2362C22.1496 12.0768 22.2086 11.9442 22.3214 11.8383C22.4343 11.728 22.5683 11.6752 22.7231 11.6802C22.878 11.6851 23.0127 11.751 23.1272 11.8778C23.2417 12.0045 23.2964 12.1454 23.2915 12.3002L23.0759 19.0439C23.0605 19.5267 22.872 19.931 22.5105 20.2569C22.149 20.5827 21.7405 20.7384 21.285 20.7238L20.1235 20.6867C19.6452 20.6714 19.2407 20.4875 18.91 20.1349C18.5839 19.7825 18.4284 19.3695 18.4435 18.8958ZM32.2112 16.5454L32.1337 18.9709C32.1172 19.4856 31.8583 19.9538 31.3569 20.3755C30.8601 20.7974 30.3544 21.0001 29.8397 20.9836L28.4937 20.9406C27.9698 20.9238 27.4759 20.6869 27.0117 20.2298C26.5477 19.7681 26.3237 19.2867 26.3397 18.7857L26.4173 16.3602C26.4333 15.8591 26.6807 15.3951 27.1594 14.9681C27.6428 14.5368 28.1578 14.3298 28.7044 14.3473L30.0504 14.3903C30.5654 14.3976 31.0574 14.6277 31.5262 15.0804C31.9996 15.5332 32.2279 16.0216 32.2112 16.5454ZM27.5773 16.4451L27.503 18.7682C27.4963 18.9777 27.5661 19.1464 27.7125 19.2741L28.1312 19.6569C28.2242 19.7419 28.3573 19.7872 28.5304 19.7927L29.8627 19.8353C30.0586 19.8416 30.2385 19.7767 30.4024 19.6406L30.7607 19.3442C30.9054 19.2394 30.9809 19.0891 30.9871 18.8932L31.0614 16.5702C31.0687 16.3424 31.0034 16.1717 30.8657 16.0578L30.4729 15.7238C30.3399 15.6056 30.1823 15.5435 30.0001 15.5377L28.8112 15.4997C28.5516 15.4914 28.3492 15.5465 28.2041 15.665L27.8039 15.9873C27.6589 16.1012 27.5834 16.2538 27.5773 16.4451ZM37.3471 11.6416L37.9483 11.6608C38.1077 11.6659 38.2403 11.7271 38.346 11.8445C38.4563 11.9574 38.509 12.0936 38.5039 12.2531L38.4882 12.745C38.4831 12.9044 38.4217 13.0415 38.304 13.1563C38.1911 13.2667 38.0549 13.3193 37.8955 13.3142L37.2805 13.2946C37.1166 13.2893 36.9795 13.2257 36.8694 13.1036C36.7639 12.9817 36.7157 12.8479 36.725 12.7023L36.7548 12.1971C36.7599 12.0377 36.8188 11.9051 36.9317 11.7993C37.0492 11.689 37.1876 11.6365 37.3471 11.6416ZM39.3778 21.2885L35.8795 21.1767C35.7201 21.1716 35.5852 21.1126 35.4748 20.9996C35.3692 20.8822 35.3189 20.7438 35.324 20.5844C35.3289 20.4295 35.3879 20.2969 35.5008 20.1865C35.6183 20.0763 35.7568 20.0237 35.9162 20.0288L37.0914 20.0664L37.2284 15.7825L36.0668 15.7453C35.9074 15.7402 35.7726 15.6789 35.6624 15.5614C35.5567 15.444 35.5063 15.3079 35.5113 15.1531C35.5164 14.9936 35.5754 14.8587 35.6884 14.7484C35.806 14.6336 35.9446 14.5787 36.104 14.5838L37.8531 14.6397C38.0125 14.6448 38.145 14.7083 38.2505 14.8303C38.3608 14.9478 38.4133 15.0862 38.4082 15.2457L38.2529 20.1035L39.4008 20.1402C39.5602 20.1453 39.695 20.2066 39.8053 20.3241C39.9202 20.4373 39.9751 20.5735 39.97 20.7329C39.9649 20.8924 39.9036 21.0272 39.7861 21.1374C39.6687 21.2431 39.5326 21.2935 39.3778 21.2885ZM46.0842 16.2502L44.487 17.2182L44.3697 20.8873C44.3647 21.0421 44.3035 21.1747 44.186 21.2849C44.0685 21.3952 43.9323 21.4478 43.7774 21.4428C43.6225 21.4379 43.49 21.3767 43.3798 21.2591C43.2695 21.1416 43.2169 21.0054 43.2218 20.8506L43.3959 15.4051C43.401 15.2457 43.46 15.1108 43.573 15.0004C43.6907 14.8856 43.8292 14.8308 43.9886 14.8359C44.1435 14.8408 44.276 14.9043 44.3861 15.0264C44.4963 15.1439 44.5489 15.2824 44.5438 15.4418L44.5315 15.8244L45.5972 15.2224C45.9551 15.0104 46.3549 14.9115 46.7968 14.9256L47.3297 14.9427C47.7852 14.9572 48.174 15.1315 48.4962 15.4656C48.8184 15.7996 48.981 16.2038 48.9841 16.6781L49.0021 21.0353C49.0017 21.1904 48.9427 21.323 48.8252 21.4332C48.7077 21.5435 48.5692 21.596 48.4098 21.5909C48.2595 21.5861 48.129 21.5318 48.0183 21.4279C47.9078 21.3195 47.8531 21.1764 47.8542 20.9987L47.8204 16.7092C47.8195 16.308 47.6164 16.1009 47.211 16.0879L46.6507 16.07C46.4777 16.0645 46.2888 16.1245 46.0842 16.2502ZM63.7682 16.5488L63.6461 20.3681L63.963 20.9391L64.4413 20.9544L64.8081 20.3916L65.0245 13.6206C65.0296 13.4612 65.0909 13.3264 65.2084 13.2162C65.3306 13.1015 65.4715 13.0467 65.6309 13.0518C65.7858 13.0568 65.9183 13.118 66.0285 13.2355C66.1388 13.353 66.1914 13.4892 66.1865 13.6441L65.9637 20.6132C65.9609 20.6997 65.9092 20.8189 65.8086 20.9707L65.2475 21.8351C65.1319 22.0275 64.9626 22.1201 64.7394 22.1129L63.6598 22.0784C63.3182 22.0675 63.1045 21.9056 63.0188 21.5929C62.9041 21.8992 62.6896 22.0474 62.3753 22.0374L61.3641 22.005C61.0726 21.9957 60.8665 21.882 60.7458 21.6638L60.2803 20.8214C60.194 20.6681 60.1526 20.5369 60.1561 20.4276L60.3785 13.4721C60.3835 13.3127 60.4449 13.1779 60.5624 13.0676C60.6846 12.953 60.8254 12.8982 60.9848 12.9033C61.1351 12.9081 61.2631 12.9715 61.3686 13.0934C61.4788 13.2109 61.5314 13.3494 61.5263 13.5088L61.309 20.3071L61.6263 20.8644L62.1182 20.8801L62.4987 20.3178L62.6204 16.5121C62.6255 16.3527 62.6844 16.2201 62.7972 16.1142C62.9147 16.004 63.0532 15.9514 63.2126 15.9565C63.3721 15.9616 63.5046 16.0228 63.6103 16.1402C63.7207 16.2532 63.7733 16.3894 63.7682 16.5488ZM70.4197 18.1498L72.6675 18.2217C72.7905 18.2256 72.9673 18.2586 73.1979 18.3207L73.2102 17.5072C73.2153 17.3478 73.1626 17.2116 73.0523 17.0986C72.9466 16.9813 72.814 16.92 72.6546 16.9149L70.4751 16.8453C70.3202 16.8403 70.1876 16.7791 70.0774 16.6616C69.9672 16.5441 69.9145 16.4079 69.9195 16.253C69.9246 16.0936 69.9835 15.9609 70.0963 15.8551C70.2139 15.7449 70.3523 15.6923 70.5117 15.6974L72.6913 15.7671C73.165 15.7822 73.5628 15.9614 73.8847 16.3045C74.2111 16.6478 74.3735 17.0611 74.3717 17.5443L74.3778 21.8465C74.3727 22.006 74.3114 22.1408 74.1939 22.251C74.0765 22.3567 73.9404 22.4071 73.7855 22.4021C73.6215 22.3969 73.4844 22.3378 73.374 22.2248C73.2638 22.1073 73.2112 21.9688 73.2163 21.8094L72.2277 22.3523L70.2873 22.2903C69.8045 22.2749 69.3999 22.0932 69.0736 21.7454C68.7473 21.3975 68.5919 20.9822 68.6073 20.4994L68.6288 19.8298C68.644 19.3515 68.8256 18.9492 69.1734 18.6229C69.526 18.2922 69.9414 18.1345 70.4197 18.1498ZM73.2179 20.4758L73.1992 19.9896C73.1999 19.8255 73.1473 19.687 73.0415 19.5742C72.9357 19.4614 72.8031 19.4024 72.6436 19.3973L70.3821 19.325C70.2227 19.3199 70.0842 19.3725 69.9667 19.4827C69.8539 19.5885 69.7949 19.7212 69.7898 19.8806L69.7693 20.5228C69.7643 20.6777 69.817 20.8139 69.9272 20.9314C70.0375 21.0489 70.17 21.1102 70.3249 21.1151L71.9442 21.1669L73.2179 20.4758ZM79.6399 12.9935L80.2412 13.0128C80.4006 13.0179 80.5331 13.0791 80.6388 13.1965C80.7492 13.3094 80.8018 13.4456 80.7967 13.605L80.781 14.097C80.7759 14.2564 80.7145 14.3935 80.5969 14.5083C80.4839 14.6187 80.3477 14.6713 80.1883 14.6662L79.5734 14.6466C79.4094 14.6413 79.2724 14.5777 79.1623 14.4556C79.0568 14.3337 79.0086 14.1999 79.0178 14.0543L79.0476 13.5491C79.0527 13.3897 79.1117 13.2571 79.2245 13.1513C79.342 13.041 79.4805 12.9884 79.6399 12.9935ZM81.6706 22.6405L78.1724 22.5287C78.013 22.5236 77.8781 22.4646 77.7677 22.3516C77.662 22.2342 77.6117 22.0958 77.6168 21.9364C77.6218 21.7815 77.6807 21.6489 77.7937 21.5385C77.9112 21.4283 78.0497 21.3757 78.2091 21.3808L79.3843 21.4184L79.5212 17.1344L78.3597 17.0973C78.2003 17.0922 78.0654 17.0309 77.9552 16.9134C77.8495 16.796 77.7992 16.6599 77.8041 16.505C77.8092 16.3456 77.8682 16.2107 77.9812 16.1003C78.0989 15.9855 78.2374 15.9307 78.3968 15.9358L80.1459 15.9917C80.3054 15.9968 80.4378 16.0603 80.5434 16.1822C80.6536 16.2998 80.7062 16.4382 80.7011 16.5977L80.5458 21.4555L81.6936 21.4922C81.8531 21.4973 81.9879 21.5586 82.0981 21.6761C82.2131 21.7892 82.268 21.9255 82.2629 22.0849C82.2578 22.2443 82.1965 22.3792 82.079 22.4894C81.9616 22.5951 81.8255 22.6455 81.6706 22.6405ZM89.5275 22.9053L88.3796 22.8687C87.9059 22.8535 87.5036 22.6719 87.1728 22.324C86.8419 21.976 86.6841 21.5651 86.6992 21.0914L86.8183 17.3677L86.2307 17.3489C86.0713 17.3438 85.9363 17.2848 85.826 17.1718C85.7201 17.059 85.6699 16.9206 85.6751 16.7567C85.6802 16.5972 85.7391 16.4646 85.852 16.3588C85.9695 16.2486 86.1079 16.196 86.2674 16.2011L86.8686 16.2203L86.9136 14.8128C86.9187 14.6534 86.9777 14.5208 87.0905 14.4149C87.208 14.3047 87.3465 14.2521 87.5059 14.2572C87.6562 14.262 87.7865 14.3232 87.8967 14.4407C88.0115 14.5584 88.0664 14.6946 88.0615 14.8495L88.0165 16.257L90.3258 16.3308C90.4807 16.3358 90.6133 16.397 90.7235 16.5145C90.8337 16.632 90.8864 16.7682 90.8814 16.9231C90.8763 17.0825 90.815 17.2173 90.6975 17.3276C90.5801 17.4333 90.444 17.4836 90.2891 17.4787L87.9661 17.4044L87.8471 21.1281C87.8421 21.283 87.8948 21.4192 88.005 21.5367C88.1198 21.6543 88.2569 21.7157 88.4163 21.7208L89.5368 21.7566C89.842 21.7664 90.05 21.6089 90.1607 21.2841C90.2715 20.9548 90.4704 20.7947 90.7574 20.8039C90.9259 20.8093 91.0607 20.8706 91.1618 20.9878C91.2677 21.1006 91.3179 21.2413 91.3125 21.4099C91.3014 21.756 91.1264 22.097 90.7874 22.4327C90.453 22.7639 90.0331 22.9215 89.5275 22.9053ZM98.5873 23.195L95.1164 23.084C94.957 23.0789 94.8222 23.0176 94.7119 22.9001C94.6064 22.7782 94.5562 22.6375 94.5613 22.4781C94.5662 22.3232 94.6252 22.1906 94.7381 22.0802C94.8557 21.97 94.9941 21.9174 95.1536 21.9225L96.3014 21.9592L96.5179 15.1882L95.3563 15.1511C95.1969 15.146 95.062 15.087 94.9516 14.974C94.846 14.8566 94.7957 14.7183 94.8008 14.5588C94.8059 14.3994 94.8648 14.2668 94.9776 14.161C95.0951 14.0507 95.2336 13.9982 95.393 14.0032L97.1421 14.0592C97.297 14.0641 97.4296 14.1253 97.5398 14.2429C97.65 14.3604 97.7027 14.4966 97.6977 14.6514L97.4629 21.9963L98.6244 22.0334C98.7793 22.0384 98.9119 22.0996 99.0221 22.2171C99.1323 22.3347 99.185 22.4708 99.18 22.6257C99.1749 22.7851 99.1135 22.9222 98.9959 23.037C98.8829 23.1474 98.7467 23.2001 98.5873 23.195ZM105.016 13.8047L105.617 13.824C105.776 13.8291 105.909 13.8903 106.015 14.0077C106.125 14.1206 106.178 14.2568 106.172 14.4162L106.157 14.9082C106.152 15.0676 106.09 15.2047 105.973 15.3195C105.86 15.4299 105.723 15.4825 105.564 15.4774L104.949 15.4578C104.785 15.4525 104.648 15.3889 104.538 15.2668C104.432 15.1449 104.384 15.0111 104.394 14.8655L104.423 14.3603C104.428 14.2009 104.487 14.0683 104.6 13.9624C104.718 13.8522 104.856 13.7996 105.016 13.8047ZM107.046 23.4517L103.548 23.3399C103.389 23.3348 103.254 23.2757 103.143 23.1628C103.038 23.0454 102.987 22.907 102.993 22.7476C102.997 22.5927 103.056 22.4601 103.169 22.3497C103.287 22.2395 103.425 22.1869 103.585 22.192L104.76 22.2296L104.897 17.9456L103.735 17.9085C103.576 17.9034 103.441 17.8421 103.331 17.7246C103.225 17.6072 103.175 17.4711 103.18 17.3162C103.185 17.1568 103.244 17.0219 103.357 16.9115C103.475 16.7967 103.613 16.7419 103.773 16.747L105.522 16.8029C105.681 16.808 105.814 16.8715 105.919 16.9934C106.029 17.1109 106.082 17.2494 106.077 17.4088L105.921 22.2667L107.069 22.3034C107.229 22.3085 107.364 22.3698 107.474 22.4873C107.589 22.6004 107.644 22.7367 107.639 22.8961C107.633 23.0555 107.572 23.1904 107.455 23.3006C107.337 23.4063 107.201 23.4566 107.046 23.4517ZM112.688 17.0457L115.319 17.1298C115.729 17.1429 116.087 17.2774 116.393 17.5335C116.7 17.7849 116.85 18.0268 116.842 18.2591C116.837 18.4231 116.773 18.5556 116.652 18.6565C116.534 18.7577 116.405 18.806 116.264 18.8015C116.082 18.7956 115.918 18.7083 115.773 18.5395C115.628 18.3708 115.474 18.2837 115.31 18.2785L112.713 18.1955C112.458 18.1873 112.327 18.2903 112.32 18.5044C112.316 18.6547 112.396 18.7713 112.562 18.8541L115.573 20.3046C115.878 20.4511 116.124 20.6801 116.31 20.9915C116.501 21.2986 116.591 21.6366 116.579 22.0055C116.563 22.4975 116.374 22.9086 116.013 23.239C115.656 23.5696 115.256 23.7278 114.814 23.7137L112.491 23.6394C112.091 23.6266 111.721 23.494 111.382 23.2415C111.048 22.9892 110.885 22.7491 110.892 22.5214C110.897 22.3711 110.956 22.2407 111.069 22.1303C111.187 22.0155 111.334 21.961 111.512 21.9667C111.658 21.9713 111.81 22.0583 111.969 22.2275C112.132 22.3969 112.371 22.4866 112.685 22.4966L114.824 22.565C114.992 22.5704 115.136 22.5111 115.253 22.3872C115.372 22.2588 115.433 22.1103 115.439 21.9417C115.447 21.6821 115.325 21.4913 115.074 21.3692L112.037 19.8837C111.745 19.7422 111.523 19.5436 111.372 19.288C111.221 19.0324 111.149 18.7747 111.157 18.5151C111.17 18.1051 111.323 17.7544 111.615 17.4628C111.912 17.1713 112.269 17.0323 112.688 17.0457ZM123.362 23.9869L122.214 23.9502C121.74 23.9351 121.338 23.7535 121.007 23.4055C120.676 23.0576 120.518 22.6467 120.534 22.173L120.653 18.4493L120.065 18.4305C119.906 18.4254 119.771 18.3664 119.66 18.2534C119.554 18.1406 119.504 18.0022 119.509 17.8382C119.514 17.6788 119.573 17.5462 119.686 17.4404C119.804 17.3301 119.942 17.2776 120.102 17.2827L120.703 17.3019L120.748 15.8944C120.753 15.735 120.812 15.6024 120.925 15.4965C121.042 15.3863 121.181 15.3337 121.34 15.3388C121.49 15.3436 121.621 15.4048 121.731 15.5223C121.846 15.64 121.901 15.7762 121.896 15.9311L121.851 17.3386L124.16 17.4124C124.315 17.4174 124.448 17.4786 124.558 17.5961C124.668 17.7136 124.721 17.8498 124.716 18.0047C124.711 18.1641 124.649 18.2989 124.532 18.4092C124.414 18.5148 124.278 18.5652 124.123 18.5603L121.8 18.486L121.681 22.2097C121.676 22.3645 121.729 22.5007 121.839 22.6183C121.954 22.7359 122.091 22.7973 122.251 22.8024L123.371 22.8382C123.676 22.848 123.884 22.6905 123.995 22.3657C124.106 22.0364 124.305 21.8763 124.592 21.8855C124.76 21.8909 124.895 21.9522 124.996 22.0694C125.102 22.1822 125.152 22.3229 125.147 22.4914C125.136 22.8376 124.961 23.1786 124.622 23.5142C124.287 23.8455 123.867 24.0031 123.362 23.9869Z"
                  fill="#222222"
                />
                <rect
                  x="0.0849609"
                  y="4.73779"
                  width="143"
                  height="30"
                  rx="4"
                  transform="rotate(-1.89867 0.0849609 4.73779)"
                  fill="white"
                />
                <path
                  d="M18.6554 22.3957L18.5951 20.5783C18.5898 20.4189 18.64 20.2828 18.7457 20.1698C18.8558 20.0522 18.9906 19.9907 19.15 19.9854C19.3094 19.9801 19.4457 20.0326 19.5588 20.1429C19.6763 20.2484 19.7377 20.3809 19.7429 20.5403L19.8036 22.3713C19.8088 22.5262 19.8701 22.6564 19.9876 22.7619C20.1051 22.8675 20.2458 22.9175 20.4098 22.9121L21.5712 22.8736C21.7307 22.8683 21.8655 22.8091 21.9757 22.696C22.0904 22.5782 22.1451 22.4396 22.1398 22.2802L21.9153 15.5095C21.9101 15.3501 21.9603 15.2139 22.066 15.101C22.1715 14.9835 22.3017 14.9222 22.4566 14.917C22.6114 14.9119 22.7501 14.9689 22.8726 15.0879C22.9951 15.207 23.0589 15.3439 23.0641 15.4988L23.2876 22.2421C23.3036 22.725 23.1418 23.1407 22.8023 23.4894C22.4627 23.8381 22.0652 24.02 21.6098 24.0351L20.4483 24.0736C19.97 24.0894 19.5544 23.9322 19.2015 23.6019C18.8531 23.2715 18.6711 22.8694 18.6554 22.3957ZM32.241 19.1547L32.3214 21.5802C32.3385 22.0949 32.1106 22.5789 31.6377 23.0323C31.1694 23.4856 30.6779 23.7208 30.1632 23.7378L28.8173 23.7824C28.2935 23.7998 27.7851 23.5955 27.2922 23.1695C26.7992 22.739 26.5443 22.2733 26.5277 21.7722L26.4473 19.3468C26.4307 18.8458 26.6474 18.3667 27.0973 17.9094C27.5517 17.4475 28.0521 17.2075 28.5987 17.1894L29.9446 17.1448C30.459 17.1186 30.9649 17.3161 31.4622 17.7374C31.964 18.1585 32.2236 18.6309 32.241 19.1547ZM27.6104 19.3561L27.6874 21.6791C27.6943 21.8886 27.775 22.0524 27.9294 22.1703L28.372 22.525C28.4704 22.6038 28.6061 22.6404 28.7792 22.6346L30.1115 22.5905C30.3073 22.584 30.4826 22.5075 30.6374 22.361L30.9756 22.042C31.1132 21.928 31.1787 21.7731 31.1722 21.5772L31.0952 19.2543C31.0877 19.0265 31.0115 18.8604 30.8667 18.7557L30.4529 18.448C30.3125 18.3386 30.1512 18.287 29.969 18.293L28.7802 18.3324C28.5206 18.341 28.3222 18.4092 28.1851 18.5368L27.8068 18.8845C27.6695 19.0076 27.604 19.1648 27.6104 19.3561ZM37.047 13.9272L37.6482 13.9073C37.8077 13.902 37.9439 13.9545 38.057 14.0647C38.1745 14.1703 38.2359 14.3027 38.2412 14.4622L38.2575 14.9541C38.2628 15.1135 38.2104 15.2543 38.1005 15.3765C37.9949 15.494 37.8625 15.5554 37.703 15.5607L37.0882 15.5811C36.9242 15.5865 36.7833 15.5319 36.6655 15.4172C36.5523 15.3024 36.4955 15.1721 36.4952 15.0262L36.4921 14.5201C36.4868 14.3607 36.537 14.2245 36.6427 14.1116C36.7528 13.994 36.8876 13.9325 37.047 13.9272ZM39.7009 23.4216L36.2028 23.5376C36.0434 23.5429 35.905 23.4928 35.7875 23.3872C35.6744 23.277 35.6152 23.1421 35.6099 22.9827C35.6048 22.8279 35.655 22.6917 35.7605 22.5742C35.8706 22.4566 36.0054 22.3951 36.1648 22.3898L37.3399 22.3508L37.1979 18.0671L36.0365 18.1056C35.877 18.1109 35.7385 18.0584 35.6209 17.9484C35.5078 17.8381 35.4487 17.7056 35.4435 17.5507C35.4382 17.3913 35.4884 17.2528 35.5939 17.1353C35.7038 17.0131 35.8385 16.9494 35.9979 16.9441L37.747 16.8861C37.9064 16.8808 38.0427 16.9356 38.156 17.0504C38.2736 17.1605 38.3351 17.2952 38.3404 17.4547L38.5014 22.3123L39.6492 22.2743C39.8086 22.269 39.9472 22.3214 40.0648 22.4315C40.1868 22.5369 40.2505 22.6693 40.2558 22.8287C40.2611 22.9881 40.2087 23.1267 40.0986 23.2443C39.9883 23.3574 39.8558 23.4165 39.7009 23.4216ZM46.0654 17.9578L44.5346 19.0276L44.6562 22.6965C44.6613 22.8514 44.6088 22.9876 44.4987 23.1053C44.3886 23.2229 44.2562 23.2843 44.1013 23.2895C43.9464 23.2946 43.8102 23.2421 43.6925 23.132C43.5749 23.0219 43.5135 22.8894 43.5084 22.7346L43.3279 17.2893C43.3226 17.1299 43.3727 16.9915 43.4782 16.874C43.5882 16.7518 43.7229 16.688 43.8823 16.6827C44.0372 16.6776 44.1735 16.7324 44.2913 16.847C44.4089 16.9571 44.4704 17.0919 44.4757 17.2513L44.4884 17.6339L45.5126 16.9638C45.8559 16.729 46.2485 16.6043 46.6903 16.5896L47.2232 16.572C47.6787 16.5569 48.0781 16.7055 48.4213 17.0179C48.7645 17.3302 48.9531 17.723 48.987 18.1961L49.2884 22.543C49.2981 22.6977 49.2479 22.8339 49.1378 22.9515C49.0277 23.0691 48.8929 23.1306 48.7335 23.1359C48.5832 23.1409 48.4495 23.0952 48.3323 22.9987C48.2149 22.8977 48.151 22.7585 48.1406 22.581L47.8278 18.3029C47.8008 17.9025 47.5847 17.7091 47.1793 17.7225L46.6191 17.7411C46.446 17.7468 46.2614 17.819 46.0654 17.9578ZM63.7314 17.1054L63.858 20.9246L64.2114 21.4737L64.6896 21.4579L65.019 20.8724L64.7946 14.1017C64.7893 13.9423 64.8417 13.8038 64.9518 13.6861C65.0663 13.5638 65.2033 13.5 65.3627 13.4947C65.5175 13.4896 65.6538 13.542 65.7714 13.6521C65.8891 13.7622 65.9505 13.8947 65.9556 14.0496L66.1866 21.0184C66.1895 21.1049 66.1457 21.2272 66.0551 21.3853L65.5515 22.2843C65.4486 22.4838 65.2856 22.5872 65.0624 22.5946L63.983 22.6304C63.6413 22.6417 63.4176 22.4941 63.3117 22.1875C63.2172 22.5007 63.0128 22.6625 62.6985 22.673L61.6873 22.7065C61.3958 22.7161 61.1828 22.616 61.0481 22.4062L60.5288 21.5958C60.4327 21.4485 60.3829 21.3202 60.3793 21.2109L60.1487 14.2557C60.1434 14.0963 60.1958 13.9578 60.3059 13.8402C60.4204 13.7178 60.5574 13.654 60.7168 13.6487C60.8671 13.6437 60.9989 13.6986 61.1121 13.8134C61.2298 13.9235 61.2912 14.0583 61.2965 14.2177L61.5219 21.0157L61.8748 21.5512L62.3667 21.5349L62.7098 20.949L62.5836 17.1435C62.5783 16.984 62.6285 16.8479 62.7342 16.7349C62.8443 16.6173 62.9791 16.5558 63.1385 16.5505C63.2979 16.5452 63.4342 16.5977 63.5472 16.708C63.6647 16.8135 63.7261 16.946 63.7314 17.1054ZM70.4729 18.2704L72.7207 18.1959C72.8437 18.1918 73.0222 18.2132 73.2563 18.2602L73.2157 17.4476C73.2104 17.2882 73.1491 17.1557 73.0316 17.0502C72.9185 16.9399 72.7822 16.8874 72.6228 16.8927L70.4433 16.965C70.2885 16.9701 70.1522 16.9176 70.0346 16.8075C69.9169 16.6974 69.8555 16.565 69.8504 16.4101C69.8451 16.2507 69.8953 16.1145 70.001 16.0016C70.1111 15.8839 70.2459 15.8225 70.4053 15.8172L72.5847 15.7449C73.0584 15.7292 73.4671 15.8821 73.8106 16.2036C74.1587 16.5249 74.3475 16.9267 74.3772 17.4091L74.6631 21.7018C74.6684 21.8612 74.616 21.9997 74.5059 22.1174C74.3957 22.2305 74.2631 22.2896 74.1083 22.2947C73.9443 22.3002 73.8036 22.2501 73.6861 22.1446C73.5684 22.0345 73.5069 21.8997 73.5017 21.7403L72.5505 22.3464L70.6102 22.4107C70.1274 22.4267 69.7119 22.2717 69.3636 21.9459C69.0154 21.62 68.8333 21.2156 68.8173 20.7328L68.7951 20.0633C68.7792 19.585 68.9342 19.1718 69.2601 18.8236C69.5904 18.4706 69.9947 18.2862 70.4729 18.2704ZM73.4165 20.4094L73.3663 19.9254C73.3563 19.7616 73.2948 19.6268 73.1819 19.5212C73.0689 19.4155 72.9328 19.3653 72.7733 19.3705L70.5119 19.4455C70.3525 19.4508 70.2177 19.5123 70.1076 19.6299C70.0019 19.7428 69.9517 19.879 69.957 20.0384L69.9783 20.6807C69.9834 20.8355 70.0448 20.968 70.1625 21.0781C70.2801 21.1882 70.4164 21.2407 70.5712 21.2355L72.1904 21.1819L73.4165 20.4094ZM79.3382 12.5253L79.9395 12.5053C80.0989 12.5 80.2351 12.5525 80.3482 12.6628C80.4657 12.7683 80.5271 12.9008 80.5324 13.0602L80.5487 13.5521C80.554 13.7115 80.5017 13.8523 80.3917 13.9745C80.2862 14.092 80.1537 14.1534 79.9943 14.1587L79.3794 14.1791C79.2154 14.1845 79.0745 14.1299 78.9567 14.0153C78.8435 13.9005 78.7867 13.7701 78.7864 13.6242L78.7833 13.1182C78.7781 12.9588 78.8283 12.8226 78.934 12.7097C79.0441 12.592 79.1788 12.5305 79.3382 12.5253ZM81.9921 22.0197L78.4941 22.1357C78.3346 22.1409 78.1962 22.0908 78.0787 21.9853C77.9656 21.875 77.9064 21.7402 77.9011 21.5808C77.896 21.4259 77.9462 21.2897 78.0517 21.1722C78.1618 21.0546 78.2966 20.9931 78.456 20.9878L79.6312 20.9489L79.4891 16.6651L78.3277 16.7036C78.1683 16.7089 78.0297 16.6565 77.9121 16.5464C77.799 16.4362 77.7399 16.3036 77.7347 16.1487C77.7295 15.9893 77.7796 15.8509 77.8851 15.7334C77.9951 15.6112 78.1298 15.5474 78.2892 15.5421L80.0382 15.4842C80.1976 15.4789 80.334 15.5336 80.4472 15.6484C80.5648 15.7585 80.6263 15.8933 80.6316 16.0527L80.7926 20.9104L81.9404 20.8723C82.0998 20.8671 82.2384 20.9195 82.356 21.0296C82.4781 21.1349 82.5417 21.2673 82.547 21.4268C82.5523 21.5862 82.4999 21.7247 82.3898 21.8424C82.2796 21.9554 82.147 22.0146 81.9921 22.0197ZM89.8496 21.7729L88.7018 21.8109C88.2281 21.8266 87.8149 21.6716 87.4621 21.3459C87.1093 21.0202 86.9251 20.6205 86.9094 20.1468L86.7859 16.4232L86.1983 16.4427C86.0389 16.448 85.9005 16.3979 85.783 16.2923C85.67 16.1866 85.6109 16.0518 85.6054 15.8878C85.6001 15.7284 85.6503 15.5922 85.756 15.4793C85.8661 15.3616 86.0009 15.3002 86.1603 15.2949L86.7615 15.275L86.7149 13.8675C86.7096 13.7081 86.7598 13.5719 86.8655 13.459C86.9756 13.3414 87.1103 13.2799 87.2698 13.2746C87.4201 13.2696 87.554 13.3222 87.6717 13.4323C87.7939 13.5422 87.8575 13.6746 87.8627 13.8295L87.9093 15.2369L90.2186 15.1604C90.3735 15.1552 90.5097 15.2077 90.6274 15.3178C90.745 15.4279 90.8064 15.5604 90.8115 15.7152C90.8168 15.8747 90.7644 16.0132 90.6543 16.1308C90.5441 16.2439 90.4115 16.303 90.2567 16.3082L87.9337 16.3852L88.0572 20.1087C88.0623 20.2636 88.1237 20.3961 88.2413 20.5061C88.3635 20.6161 88.5043 20.6684 88.6638 20.6631L89.7842 20.626C90.0894 20.6159 90.2867 20.4452 90.376 20.1139C90.4652 19.7781 90.6532 19.6054 90.9402 19.5959C91.1087 19.5903 91.2472 19.6427 91.3558 19.7531C91.4687 19.8588 91.528 19.9959 91.5336 20.1645C91.545 20.5106 91.3925 20.8622 91.0761 21.2193C90.764 21.5716 90.3552 21.7561 89.8496 21.7729ZM98.9091 21.4726L95.4383 21.5876C95.2789 21.5929 95.1404 21.5405 95.0227 21.4304C94.9095 21.3156 94.8502 21.1785 94.845 21.0191C94.8398 20.8642 94.89 20.728 94.9956 20.6105C95.1057 20.4929 95.2404 20.4314 95.3998 20.4262L96.5476 20.3881L96.3232 13.6174L95.1617 13.6559C95.0023 13.6612 94.8638 13.6111 94.7464 13.5055C94.6333 13.3953 94.5741 13.2605 94.5688 13.101C94.5635 12.9416 94.6137 12.8054 94.7194 12.6925C94.8295 12.5749 94.9643 12.5134 95.1237 12.5081L96.8727 12.4501C97.0276 12.445 97.1638 12.4975 97.2815 12.6076C97.3991 12.7177 97.4605 12.8501 97.4656 13.005L97.7091 20.3496L98.8706 20.3111C99.0254 20.306 99.1617 20.3584 99.2793 20.4685C99.397 20.5786 99.4584 20.7111 99.4635 20.866C99.4688 21.0254 99.4165 21.1662 99.3065 21.2884C99.201 21.4059 99.0685 21.4673 98.9091 21.4726ZM104.713 11.6841L105.314 11.6642C105.474 11.6589 105.61 11.7113 105.723 11.8216C105.84 11.9271 105.902 12.0596 105.907 12.219L105.923 12.7109C105.929 12.8704 105.876 13.0112 105.766 13.1334C105.661 13.2509 105.528 13.3123 105.369 13.3175L104.754 13.3379C104.59 13.3434 104.449 13.2888 104.331 13.1741C104.218 13.0593 104.161 12.929 104.161 12.783L104.158 12.277C104.153 12.1176 104.203 11.9814 104.309 11.8685C104.419 11.7508 104.554 11.6894 104.713 11.6841ZM107.367 21.1785L103.869 21.2945C103.709 21.2998 103.571 21.2496 103.453 21.1441C103.34 21.0338 103.281 20.899 103.276 20.7396C103.271 20.5847 103.321 20.4486 103.426 20.3311C103.537 20.2134 103.671 20.152 103.831 20.1467L105.006 20.1077L104.864 15.8239L103.702 15.8624C103.543 15.8677 103.404 15.8153 103.287 15.7052C103.174 15.595 103.115 15.4624 103.109 15.3076C103.104 15.1481 103.154 15.0097 103.26 14.8922C103.37 14.77 103.504 14.7062 103.664 14.701L105.413 14.643C105.572 14.6377 105.709 14.6925 105.822 14.8073C105.94 14.9174 106.001 15.0521 106.006 15.2115L106.167 20.0692L107.315 20.0312C107.475 20.0259 107.613 20.0783 107.731 20.1884C107.853 20.2938 107.916 20.4262 107.922 20.5856C107.927 20.745 107.875 20.8835 107.765 21.0012C107.654 21.1143 107.522 21.1734 107.367 21.1785ZM112.58 14.4191L115.211 14.3319C115.621 14.3183 115.987 14.4293 116.309 14.6648C116.632 14.8958 116.797 15.1274 116.804 15.3597C116.81 15.5237 116.755 15.66 116.64 15.7687C116.53 15.8772 116.404 15.9338 116.263 15.9385C116.08 15.9446 115.911 15.8681 115.756 15.7091C115.6 15.5501 115.44 15.4733 115.276 15.4788L112.68 15.5648C112.425 15.5733 112.301 15.6846 112.308 15.8986C112.313 16.0489 112.401 16.16 112.572 16.2319L115.671 17.4834C115.985 17.6098 116.245 17.8223 116.451 18.121C116.662 18.4149 116.773 18.7464 116.785 19.1153C116.801 19.6073 116.64 20.0298 116.301 20.3831C115.966 20.7362 115.577 20.92 115.136 20.9347L112.813 21.0117C112.412 21.025 112.034 20.9166 111.68 20.6867C111.33 20.4566 111.152 20.2277 111.144 20C111.139 19.8497 111.19 19.7158 111.295 19.5983C111.405 19.4761 111.549 19.412 111.727 19.4061C111.872 19.4013 112.03 19.4782 112.199 19.6367C112.373 19.7951 112.617 19.8691 112.932 19.8587L115.07 19.7878C115.239 19.7822 115.378 19.7137 115.487 19.5824C115.597 19.4466 115.649 19.2944 115.643 19.1258C115.635 18.8662 115.501 18.6837 115.242 18.5783L112.115 17.2935C111.814 17.1712 111.58 16.9875 111.413 16.7422C111.245 16.497 111.157 16.2446 111.148 15.985C111.134 15.575 111.264 15.2151 111.536 14.9051C111.813 14.595 112.161 14.433 112.58 14.4191ZM123.683 20.6513L122.535 20.6894C122.061 20.7051 121.648 20.5501 121.295 20.2243C120.942 19.8986 120.758 19.4989 120.742 19.0252L120.619 15.3017L120.031 15.3211C119.872 15.3264 119.733 15.2763 119.616 15.1707C119.503 15.0651 119.444 14.9302 119.438 14.7663C119.433 14.6068 119.483 14.4707 119.589 14.3577C119.699 14.2401 119.834 14.1786 119.993 14.1733L120.595 14.1534L120.548 12.746C120.543 12.5865 120.593 12.4504 120.698 12.3374C120.809 12.2198 120.943 12.1583 121.103 12.153C121.253 12.1481 121.387 12.2006 121.505 12.3107C121.627 12.4206 121.691 12.5531 121.696 12.7079L121.742 14.1153L124.052 14.0388C124.206 14.0337 124.343 14.0861 124.46 14.1962C124.578 14.3063 124.639 14.4388 124.645 14.5937C124.65 14.7531 124.597 14.8916 124.487 15.0093C124.377 15.1224 124.245 15.1815 124.09 15.1866L121.767 15.2636L121.89 18.9871C121.895 19.142 121.957 19.2745 122.074 19.3846C122.197 19.4945 122.337 19.5469 122.497 19.5416L123.617 19.5044C123.922 19.4943 124.12 19.3236 124.209 18.9924C124.298 18.6565 124.486 18.4839 124.773 18.4743C124.942 18.4688 125.08 18.5212 125.189 18.6316C125.302 18.7373 125.361 18.8744 125.367 19.0429C125.378 19.3891 125.226 19.7407 124.909 20.0977C124.597 20.45 124.188 20.6346 123.683 20.6513Z"
                  fill="#222222"
                />
                <rect
                  x="0.600586"
                  y="1.87939"
                  width="143"
                  height="30"
                  rx="4"
                  fill="#2FAD54"
                />
                <path
                  d="M18.5762 20.1431V18.3247C18.5762 18.1652 18.6309 18.0308 18.7402 17.9214C18.8542 17.8075 18.9909 17.7505 19.1504 17.7505C19.3099 17.7505 19.4443 17.8075 19.5537 17.9214C19.6676 18.0308 19.7246 18.1652 19.7246 18.3247V20.1567C19.7246 20.3117 19.7816 20.4438 19.8955 20.5532C20.0094 20.6626 20.1484 20.7173 20.3125 20.7173H21.4746C21.6341 20.7173 21.7708 20.6626 21.8848 20.5532C22.0033 20.4393 22.0625 20.3026 22.0625 20.1431V13.3687C22.0625 13.2091 22.1172 13.0747 22.2266 12.9653C22.3359 12.8514 22.4681 12.7944 22.623 12.7944C22.778 12.7944 22.9147 12.856 23.0332 12.979C23.1517 13.1021 23.2109 13.241 23.2109 13.396V20.1431C23.2109 20.6261 23.0355 21.0363 22.6846 21.3735C22.3337 21.7108 21.9303 21.8794 21.4746 21.8794H20.3125C19.834 21.8794 19.4238 21.7085 19.082 21.3667C18.7448 21.0249 18.5762 20.617 18.5762 20.1431ZM32.2617 17.354V19.7808C32.2617 20.2957 32.0179 20.772 31.5303 21.2095C31.0472 21.647 30.5482 21.8657 30.0332 21.8657H28.6865C28.1624 21.8657 27.6611 21.6447 27.1826 21.2026C26.7041 20.756 26.4648 20.2821 26.4648 19.7808V17.354C26.4648 16.8527 26.6973 16.381 27.1621 15.939C27.6315 15.4924 28.1396 15.269 28.6865 15.269H30.0332C30.5482 15.2599 31.0472 15.4741 31.5303 15.9116C32.0179 16.3491 32.2617 16.8299 32.2617 17.354ZM27.627 17.4019V19.7261C27.627 19.9357 27.7021 20.1021 27.8525 20.2251L28.2832 20.5942C28.3789 20.6763 28.5133 20.7173 28.6865 20.7173H30.0195C30.2155 20.7173 30.3932 20.6466 30.5527 20.5054L30.9014 20.1978C31.0426 20.0884 31.1133 19.9357 31.1133 19.7397V17.4155C31.1133 17.1877 31.0426 17.019 30.9014 16.9097L30.498 16.5884C30.3613 16.4744 30.2018 16.4175 30.0195 16.4175H28.8301C28.5703 16.4175 28.3698 16.479 28.2285 16.6021L27.8389 16.937C27.6976 17.0555 27.627 17.2104 27.627 17.4019ZM37.2383 12.2886H37.8398C37.9993 12.2886 38.1338 12.3455 38.2432 12.4595C38.3571 12.5688 38.4141 12.7033 38.4141 12.8628V13.355C38.4141 13.5145 38.3571 13.6535 38.2432 13.772C38.1338 13.8859 37.9993 13.9429 37.8398 13.9429H37.2246C37.0605 13.9429 36.9215 13.8836 36.8076 13.7651C36.6982 13.6466 36.6458 13.5145 36.6504 13.3687L36.6641 12.8628C36.6641 12.7033 36.7188 12.5688 36.8281 12.4595C36.9421 12.3455 37.0788 12.2886 37.2383 12.2886ZM39.5762 21.8657H36.0762C35.9167 21.8657 35.7799 21.811 35.666 21.7017C35.5566 21.5877 35.502 21.451 35.502 21.2915C35.502 21.1366 35.5566 21.0021 35.666 20.8882C35.7799 20.7743 35.9167 20.7173 36.0762 20.7173H37.252V16.4312H36.0898C35.9303 16.4312 35.7936 16.3742 35.6797 16.2603C35.5703 16.1463 35.5156 16.0119 35.5156 15.8569C35.5156 15.6974 35.5703 15.5607 35.6797 15.4468C35.7936 15.3283 35.9303 15.269 36.0898 15.269H37.8398C37.9993 15.269 38.1338 15.3283 38.2432 15.4468C38.3571 15.5607 38.4141 15.6974 38.4141 15.8569V20.7173H39.5625C39.722 20.7173 39.8587 20.7743 39.9727 20.8882C40.0911 20.9976 40.1504 21.132 40.1504 21.2915C40.1504 21.451 40.0934 21.5877 39.9795 21.7017C39.8656 21.811 39.7311 21.8657 39.5762 21.8657ZM46.1182 16.6157L44.5527 17.6343V21.3052C44.5527 21.4601 44.4958 21.5946 44.3818 21.7085C44.2679 21.8224 44.1335 21.8794 43.9785 21.8794C43.8236 21.8794 43.6891 21.8224 43.5752 21.7085C43.4613 21.5946 43.4043 21.4601 43.4043 21.3052V15.8569C43.4043 15.6974 43.459 15.5607 43.5684 15.4468C43.6823 15.3283 43.819 15.269 43.9785 15.269C44.1335 15.269 44.2679 15.3283 44.3818 15.4468C44.4958 15.5607 44.5527 15.6974 44.5527 15.8569V16.2397L45.5986 15.604C45.9495 15.3807 46.346 15.269 46.7881 15.269H47.3213C47.777 15.269 48.1712 15.4308 48.5039 15.7544C48.8366 16.078 49.012 16.4767 49.0303 16.9507L49.1875 21.3052C49.1921 21.4601 49.1374 21.5946 49.0234 21.7085C48.9095 21.8224 48.7728 21.8794 48.6133 21.8794C48.4629 21.8794 48.3307 21.8293 48.2168 21.729C48.1029 21.6242 48.0436 21.4829 48.0391 21.3052L47.8682 17.019C47.8545 16.618 47.6449 16.4175 47.2393 16.4175H46.6787C46.5055 16.4175 46.3187 16.4836 46.1182 16.6157ZM63.8027 16.3491V20.1704L64.1377 20.731H64.6162L64.9648 20.1567V13.3823C64.9648 13.2228 65.0218 13.0861 65.1357 12.9722C65.2542 12.8537 65.3932 12.7944 65.5527 12.7944C65.7077 12.7944 65.8421 12.8514 65.9561 12.9653C66.07 13.0793 66.127 13.2137 66.127 13.3687V20.3413C66.127 20.4279 66.0791 20.5487 65.9834 20.7036L65.4502 21.5854C65.3408 21.7814 65.1745 21.8794 64.9512 21.8794H63.8711C63.5293 21.8794 63.3105 21.7244 63.2148 21.4146C63.11 21.7244 62.9004 21.8794 62.5859 21.8794H61.5742C61.2826 21.8794 61.0729 21.7723 60.9453 21.5581L60.4531 20.731C60.362 20.5806 60.3164 20.4507 60.3164 20.3413V13.3823C60.3164 13.2228 60.3734 13.0861 60.4873 12.9722C60.6058 12.8537 60.7448 12.7944 60.9043 12.7944C61.0547 12.7944 61.1846 12.8537 61.2939 12.9722C61.4079 13.0861 61.4648 13.2228 61.4648 13.3823V20.1841L61.7998 20.731H62.292L62.6543 20.1567V16.3491C62.6543 16.1896 62.709 16.0552 62.8184 15.9458C62.9323 15.8319 63.069 15.7749 63.2285 15.7749C63.388 15.7749 63.5225 15.8319 63.6318 15.9458C63.7458 16.0552 63.8027 16.1896 63.8027 16.3491ZM70.502 17.7368H72.751C72.874 17.7368 73.0518 17.7642 73.2842 17.8188L73.2705 17.0054C73.2705 16.8459 73.2135 16.7114 73.0996 16.6021C72.9902 16.4881 72.8558 16.4312 72.6963 16.4312H70.5156C70.3607 16.4312 70.2262 16.3742 70.1123 16.2603C69.9984 16.1463 69.9414 16.0119 69.9414 15.8569C69.9414 15.6974 69.9961 15.563 70.1055 15.4536C70.2194 15.3397 70.3561 15.2827 70.5156 15.2827H72.6963C73.1702 15.2827 73.5736 15.4491 73.9062 15.7817C74.2435 16.1144 74.4189 16.5223 74.4326 17.0054L74.5762 21.3052C74.5762 21.4647 74.5192 21.6014 74.4053 21.7153C74.2913 21.8247 74.1569 21.8794 74.002 21.8794C73.8379 21.8794 73.6989 21.8247 73.585 21.7153C73.471 21.6014 73.4141 21.4647 73.4141 21.3052L72.4434 21.8794H70.502C70.0189 21.8794 69.6087 21.7108 69.2715 21.3735C68.9342 21.0363 68.7656 20.6261 68.7656 20.1431V19.4731C68.7656 18.9946 68.9342 18.5868 69.2715 18.2495C69.6133 17.9077 70.0234 17.7368 70.502 17.7368ZM73.373 19.9722L73.3389 19.4868C73.3343 19.3228 73.2773 19.186 73.168 19.0767C73.0586 18.9673 72.9242 18.9126 72.7646 18.9126H70.502C70.3424 18.9126 70.2057 18.9696 70.0918 19.0835C69.9824 19.1929 69.9277 19.3273 69.9277 19.4868V20.1294C69.9277 20.2843 69.9847 20.4188 70.0986 20.5327C70.2126 20.6466 70.347 20.7036 70.502 20.7036H72.1221L73.373 19.9722ZM79.5527 12.2886H80.1543C80.3138 12.2886 80.4482 12.3455 80.5576 12.4595C80.6715 12.5688 80.7285 12.7033 80.7285 12.8628V13.355C80.7285 13.5145 80.6715 13.6535 80.5576 13.772C80.4482 13.8859 80.3138 13.9429 80.1543 13.9429H79.5391C79.375 13.9429 79.236 13.8836 79.1221 13.7651C79.0127 13.6466 78.9603 13.5145 78.9648 13.3687L78.9785 12.8628C78.9785 12.7033 79.0332 12.5688 79.1426 12.4595C79.2565 12.3455 79.3932 12.2886 79.5527 12.2886ZM81.8906 21.8657H78.3906C78.2311 21.8657 78.0944 21.811 77.9805 21.7017C77.8711 21.5877 77.8164 21.451 77.8164 21.2915C77.8164 21.1366 77.8711 21.0021 77.9805 20.8882C78.0944 20.7743 78.2311 20.7173 78.3906 20.7173H79.5664V16.4312H78.4043C78.2448 16.4312 78.1081 16.3742 77.9941 16.2603C77.8848 16.1463 77.8301 16.0119 77.8301 15.8569C77.8301 15.6974 77.8848 15.5607 77.9941 15.4468C78.1081 15.3283 78.2448 15.269 78.4043 15.269H80.1543C80.3138 15.269 80.4482 15.3283 80.5576 15.4468C80.6715 15.5607 80.7285 15.6974 80.7285 15.8569V20.7173H81.877C82.0365 20.7173 82.1732 20.7743 82.2871 20.8882C82.4056 20.9976 82.4648 21.132 82.4648 21.2915C82.4648 21.451 82.4079 21.5877 82.2939 21.7017C82.18 21.811 82.0456 21.8657 81.8906 21.8657ZM89.752 21.8794H88.6035C88.1296 21.8794 87.7217 21.7108 87.3799 21.3735C87.0381 21.0363 86.8672 20.6307 86.8672 20.1567V16.4312H86.2793C86.1198 16.4312 85.9831 16.3765 85.8691 16.2671C85.7598 16.1577 85.7051 16.021 85.7051 15.8569C85.7051 15.6974 85.7598 15.563 85.8691 15.4536C85.9831 15.3397 86.1198 15.2827 86.2793 15.2827H86.8809V13.8745C86.8809 13.715 86.9355 13.5806 87.0449 13.4712C87.1589 13.3573 87.2956 13.3003 87.4551 13.3003C87.6055 13.3003 87.7376 13.3573 87.8516 13.4712C87.9701 13.5851 88.0293 13.7196 88.0293 13.8745V15.2827H90.3398C90.4948 15.2827 90.6292 15.3397 90.7432 15.4536C90.8571 15.5675 90.9141 15.702 90.9141 15.8569C90.9141 16.0164 90.8571 16.1532 90.7432 16.2671C90.6292 16.3765 90.4948 16.4312 90.3398 16.4312H88.0156V20.1567C88.0156 20.3117 88.0726 20.4461 88.1865 20.5601C88.305 20.674 88.444 20.731 88.6035 20.731H89.7246C90.0299 20.731 90.2327 20.5669 90.333 20.2388C90.4333 19.9061 90.627 19.7397 90.9141 19.7397C91.0827 19.7397 91.2194 19.7967 91.3242 19.9106C91.4336 20.02 91.4883 20.159 91.4883 20.3276C91.4883 20.674 91.3242 21.0203 90.9961 21.3667C90.6725 21.7085 90.2578 21.8794 89.752 21.8794ZM98.8164 21.8794H95.3438C95.1842 21.8794 95.0475 21.8224 94.9336 21.7085C94.8242 21.59 94.7695 21.451 94.7695 21.2915C94.7695 21.1366 94.8242 21.0021 94.9336 20.8882C95.0475 20.7743 95.1842 20.7173 95.3438 20.7173H96.4922V13.9429H95.3301C95.1706 13.9429 95.0339 13.8882 94.9199 13.7788C94.8105 13.6649 94.7559 13.5282 94.7559 13.3687C94.7559 13.2091 94.8105 13.0747 94.9199 12.9653C95.0339 12.8514 95.1706 12.7944 95.3301 12.7944H97.0801C97.235 12.7944 97.3695 12.8514 97.4834 12.9653C97.5973 13.0793 97.6543 13.2137 97.6543 13.3687V20.7173H98.8164C98.9714 20.7173 99.1058 20.7743 99.2197 20.8882C99.3337 21.0021 99.3906 21.1366 99.3906 21.2915C99.3906 21.451 99.3337 21.59 99.2197 21.7085C99.1104 21.8224 98.9759 21.8794 98.8164 21.8794ZM104.941 12.2886H105.543C105.702 12.2886 105.837 12.3455 105.946 12.4595C106.06 12.5688 106.117 12.7033 106.117 12.8628V13.355C106.117 13.5145 106.06 13.6535 105.946 13.772C105.837 13.8859 105.702 13.9429 105.543 13.9429H104.928C104.764 13.9429 104.625 13.8836 104.511 13.7651C104.401 13.6466 104.349 13.5145 104.354 13.3687L104.367 12.8628C104.367 12.7033 104.422 12.5688 104.531 12.4595C104.645 12.3455 104.782 12.2886 104.941 12.2886ZM107.279 21.8657H103.779C103.62 21.8657 103.483 21.811 103.369 21.7017C103.26 21.5877 103.205 21.451 103.205 21.2915C103.205 21.1366 103.26 21.0021 103.369 20.8882C103.483 20.7743 103.62 20.7173 103.779 20.7173H104.955V16.4312H103.793C103.633 16.4312 103.497 16.3742 103.383 16.2603C103.273 16.1463 103.219 16.0119 103.219 15.8569C103.219 15.6974 103.273 15.5607 103.383 15.4468C103.497 15.3283 103.633 15.269 103.793 15.269H105.543C105.702 15.269 105.837 15.3283 105.946 15.4468C106.06 15.5607 106.117 15.6974 106.117 15.8569V20.7173H107.266C107.425 20.7173 107.562 20.7743 107.676 20.8882C107.794 20.9976 107.854 21.132 107.854 21.2915C107.854 21.451 107.797 21.5877 107.683 21.7017C107.569 21.811 107.434 21.8657 107.279 21.8657ZM112.714 15.2827H115.346C115.756 15.2827 116.118 15.4058 116.433 15.6519C116.747 15.8934 116.904 16.1304 116.904 16.3628C116.904 16.5269 116.845 16.6613 116.727 16.7661C116.613 16.8709 116.485 16.9233 116.344 16.9233C116.161 16.9233 115.995 16.8413 115.845 16.6772C115.694 16.5132 115.537 16.4312 115.373 16.4312H112.775C112.52 16.4312 112.393 16.5382 112.393 16.7524C112.393 16.9028 112.477 17.0168 112.646 17.0942L115.701 18.4478C116.011 18.5845 116.264 18.8055 116.46 19.1108C116.66 19.4116 116.761 19.7466 116.761 20.1157C116.761 20.6079 116.585 21.0249 116.234 21.3667C115.888 21.7085 115.494 21.8794 115.052 21.8794H112.728C112.326 21.8794 111.953 21.7586 111.606 21.5171C111.265 21.2756 111.094 21.0409 111.094 20.813C111.094 20.6626 111.148 20.5304 111.258 20.4165C111.372 20.298 111.518 20.2388 111.695 20.2388C111.841 20.2388 111.996 20.3208 112.16 20.4849C112.329 20.6489 112.57 20.731 112.885 20.731H115.024C115.193 20.731 115.334 20.6672 115.448 20.5396C115.562 20.4074 115.619 20.257 115.619 20.0884C115.619 19.8286 115.492 19.6418 115.236 19.5278L112.153 18.1401C111.857 18.008 111.629 17.8166 111.47 17.5659C111.31 17.3153 111.23 17.0601 111.23 16.8003C111.23 16.3901 111.372 16.0347 111.654 15.7339C111.941 15.4331 112.295 15.2827 112.714 15.2827ZM123.604 21.8794H122.455C121.981 21.8794 121.573 21.7108 121.231 21.3735C120.89 21.0363 120.719 20.6307 120.719 20.1567V16.4312H120.131C119.971 16.4312 119.835 16.3765 119.721 16.2671C119.611 16.1577 119.557 16.021 119.557 15.8569C119.557 15.6974 119.611 15.563 119.721 15.4536C119.835 15.3397 119.971 15.2827 120.131 15.2827H120.732V13.8745C120.732 13.715 120.787 13.5806 120.896 13.4712C121.01 13.3573 121.147 13.3003 121.307 13.3003C121.457 13.3003 121.589 13.3573 121.703 13.4712C121.822 13.5851 121.881 13.7196 121.881 13.8745V15.2827H124.191C124.346 15.2827 124.481 15.3397 124.595 15.4536C124.709 15.5675 124.766 15.702 124.766 15.8569C124.766 16.0164 124.709 16.1532 124.595 16.2671C124.481 16.3765 124.346 16.4312 124.191 16.4312H121.867V20.1567C121.867 20.3117 121.924 20.4461 122.038 20.5601C122.157 20.674 122.296 20.731 122.455 20.731H123.576C123.882 20.731 124.084 20.5669 124.185 20.2388C124.285 19.9061 124.479 19.7397 124.766 19.7397C124.934 19.7397 125.071 19.7967 125.176 19.9106C125.285 20.02 125.34 20.159 125.34 20.3276C125.34 20.674 125.176 21.0203 124.848 21.3667C124.524 21.7085 124.109 21.8794 123.604 21.8794Z"
                  fill="#222222"
                />
              </svg>