              <svg
                width="245"
                height="86"
                viewBox="0 0 245 86"
                fill="none"
                xmlns="http://www.w3.org/2000/svg"
              >
                <path
                  d="M23.1438 39.8469L23.0826 67.6984C23.0806 68.6099 22.7534 69.3904 22.1009 70.04C21.4485 70.6636 20.6796 70.9744 19.7942 70.9725C18.8567 70.9704 18.0631 70.6561 17.4135 70.0297C16.7638 69.3773 16.44 68.5953 16.442 67.6838L16.5032 39.8323L13.1438 39.825C12.2324 39.823 11.4519 39.4957 10.8022 38.8432C10.1787 38.1908 9.86787 37.4219 9.86981 36.5365C9.8717 35.6771 10.1598 34.9226 10.7342 34.2728C11.3346 33.597 12.1426 33.2602 13.1583 33.2625L16.5958 33.27L16.6013 30.731C16.6087 27.3716 17.7607 24.5877 20.0572 22.3792C22.3797 20.1707 25.2598 19.0703 28.6973 19.0778L36.3926 19.0947C37.304 19.0967 38.0715 19.4239 38.6951 20.0763C39.3447 20.7288 39.6685 21.5238 39.6664 22.4613C39.6645 23.3467 39.3373 24.1142 38.6848 24.7638C38.0323 25.4134 37.2634 25.7373 36.378 25.7353L28.6827 25.7184C27.1202 25.715 25.8171 26.1809 24.7734 27.1161C23.7557 28.0514 23.2452 29.2612 23.2419 30.7456L23.2364 33.2846L29.7988 33.299C30.6843 33.2749 31.4519 33.5891 32.1015 34.2416C32.7511 34.8941 33.0749 35.676 33.0729 36.5875C33.0709 37.4729 32.7437 38.2404 32.0913 38.89C31.4388 39.5396 30.6698 39.8635 29.7844 39.8615L23.1438 39.8469ZM89.5763 45.7741L89.5589 53.7038C89.5569 54.5892 89.2297 55.3567 88.5772 56.0063C87.9248 56.6559 87.1558 56.9797 86.2704 56.9778L63.0673 56.9268L63.0631 58.8409C63.0607 59.9607 63.5404 60.9123 64.5022 61.6956L66.4127 63.3014C67.4526 64.111 68.4413 64.5168 69.3788 64.5188L86.2538 64.5559C87.1392 64.5579 87.9067 64.8851 88.5563 65.5375C89.206 66.164 89.5298 66.9329 89.5278 67.8444C89.5259 68.7298 89.1856 69.4973 88.5071 70.1468C87.8546 70.7964 87.0987 71.1203 86.2394 71.1184L68.9347 71.0804C67.7889 71.0779 66.5785 70.8408 65.3034 70.3693C64.0545 69.8717 63.1312 69.3619 62.5334 68.8398L59.6093 66.2552C58.6995 65.524 57.9335 64.5067 57.3114 63.2033C56.7153 61.8999 56.4184 60.7013 56.4208 59.6076L56.4538 44.5685C56.4557 43.7092 56.7838 42.551 57.438 41.0941C58.1183 39.6373 58.9672 38.5063 59.9846 37.7013L62.7236 35.5588C64.5237 34.1045 66.5175 33.3797 68.705 33.3845L77.9237 33.4047C80.2414 33.4098 82.4268 34.3782 84.4799 36.3098L86.9356 38.6589C88.703 40.2513 89.5832 42.6231 89.5763 45.7741ZM63.1712 45.2083L63.1601 50.2864L83.0819 50.3302L83.0919 45.7599C83.0946 44.5359 82.7191 43.5976 81.9653 42.9449L80.0549 41.261C79.0671 40.4515 78.1826 40.0459 77.4013 40.0442L69.1592 40.0261C68.1435 40.0239 67.2183 40.3734 66.3834 41.0747L64.4658 42.6721C63.605 43.3212 63.1735 44.1666 63.1712 45.2083ZM111.659 22.5413L111.625 37.9709L114.52 35.6726C116.347 34.1662 118.236 33.4151 120.189 33.4194L126.205 33.4326C128.419 33.4375 130.383 34.197 132.098 35.7112L135.218 38.4134C136.075 39.1705 136.776 40.2528 137.32 41.6602C137.89 43.0677 138.173 44.4485 138.17 45.8027L138.141 59.0839C138.138 60.2818 137.875 61.5443 137.351 62.8713C136.828 64.1982 136.226 65.1735 135.548 65.797L132.691 68.486C131.96 69.1876 130.917 69.8233 129.561 70.3932C128.206 70.9371 127.06 71.2081 126.122 71.206L120.497 71.1936C117.763 71.1876 114.784 69.6576 111.562 66.6037L111.559 67.8927C111.557 68.8042 111.23 69.5847 110.577 70.2343C109.951 70.858 109.182 71.1688 108.271 71.1668C107.359 71.1648 106.579 70.8506 105.929 70.2241C105.305 69.5717 104.995 68.7898 104.997 67.8783L105.096 22.5269C105.098 21.6154 105.425 20.8479 106.078 20.2243C106.73 19.5747 107.499 19.2509 108.385 19.2528C109.296 19.2548 110.064 19.5821 110.687 20.2345C111.337 20.8609 111.661 21.6298 111.659 22.5413ZM125.683 40.0721L121.151 40.0622C120.058 40.0598 119.224 40.3053 118.65 40.7989L112.74 45.825C111.984 46.5004 111.604 47.5152 111.601 48.8694L111.584 56.2912C111.582 57.385 112.01 58.2974 112.868 59.0284L118.131 63.4931C118.885 64.1979 119.678 64.5512 120.512 64.553L125.863 64.5648C126.618 64.5664 127.27 64.3335 127.818 63.866L130.44 61.528C131.144 61.0087 131.498 60.2673 131.5 59.3037L131.53 45.4756C131.533 44.3819 131.183 43.5478 130.481 42.9733L128.103 40.9759C127.375 40.3753 126.568 40.0741 125.683 40.0721ZM179.677 71.3236L159.833 71.28C158.921 71.278 158.141 70.9508 157.491 70.2983C156.868 69.6199 156.557 68.8249 156.559 67.9135C156.561 67.028 156.875 66.2605 157.502 65.6108C158.154 64.9612 158.936 64.6374 159.848 64.6394L166.41 64.6538L166.495 25.943L159.854 25.9284C158.943 25.9264 158.162 25.6122 157.513 24.9858C156.889 24.3334 156.578 23.5514 156.58 22.64C156.582 21.7285 156.897 20.961 157.523 20.3373C158.175 19.6877 158.957 19.3639 159.869 19.3659L169.869 19.3879C170.754 19.3898 171.522 19.717 172.171 20.3695C172.821 21.022 173.145 21.7909 173.143 22.6763L173.051 64.6684L179.691 64.683C180.577 64.685 181.344 65.0122 181.994 65.6646C182.643 66.3171 182.967 67.086 182.965 67.9715C182.963 68.8829 182.636 69.6765 181.983 70.3521C181.357 71.0018 180.588 71.3256 179.677 71.3236ZM234.654 46.0928L234.637 54.0224C234.635 54.9078 234.307 55.6753 233.655 56.325C233.003 56.9746 232.234 57.2984 231.348 57.2965L208.145 57.2455L208.141 59.1595C208.138 60.2793 208.618 61.2309 209.58 62.0143L211.491 63.62C212.53 64.4296 213.519 64.8354 214.457 64.8375L231.332 64.8746C232.217 64.8765 232.984 65.2037 233.634 65.8562C234.284 66.4826 234.608 67.2516 234.606 68.163C234.604 69.0484 234.263 69.8159 233.585 70.4655C232.932 71.1151 232.177 71.4389 231.317 71.437L214.012 71.399C212.867 71.3965 211.656 71.1595 210.381 70.6879C209.132 70.1904 208.209 69.6806 207.611 69.1584L204.687 66.5739C203.777 65.8427 203.011 64.8254 202.389 63.5219C201.793 62.2185 201.496 61.02 201.499 59.9262L201.532 44.8872C201.534 44.0278 201.862 42.8697 202.516 41.4128C203.196 39.9559 204.045 38.825 205.062 38.0199L207.801 35.8775C209.602 34.4231 211.595 33.6983 213.783 33.7031L223.002 33.7234C225.319 33.7285 227.505 34.6968 229.558 36.6284L232.013 38.9776C233.781 40.57 234.661 42.9417 234.654 46.0928ZM208.249 45.5269L208.238 50.6051L228.16 50.6488L228.17 46.0785C228.172 44.8546 227.797 43.9162 227.043 43.2635L225.133 41.5796C224.145 40.7702 223.26 40.3646 222.479 40.3629L214.237 40.3448C213.221 40.3425 212.296 40.6921 211.461 41.3934L209.544 42.9907C208.683 43.6399 208.251 44.4853 208.249 45.5269Z"
                  fill="#9661FF"
                />
                <path
                  d="M23.1438 39.8469L23.0826 67.6984C23.0806 68.6099 22.7534 69.3904 22.1009 70.04C21.4485 70.6636 20.6796 70.9744 19.7942 70.9725C18.8567 70.9704 18.0631 70.6561 17.4135 70.0297C16.7638 69.3773 16.44 68.5953 16.442 67.6838L16.5032 39.8323L13.1438 39.825C12.2324 39.823 11.4519 39.4957 10.8022 38.8432C10.1787 38.1908 9.86787 37.4219 9.86981 36.5365C9.8717 35.6771 10.1598 34.9226 10.7342 34.2728C11.3346 33.597 12.1426 33.2602 13.1583 33.2625L16.5958 33.27L16.6013 30.731C16.6087 27.3716 17.7607 24.5877 20.0572 22.3792C22.3797 20.1707 25.2598 19.0703 28.6973 19.0778L36.3926 19.0947C37.304 19.0967 38.0715 19.4239 38.6951 20.0763C39.3447 20.7288 39.6685 21.5238 39.6664 22.4613C39.6645 23.3467 39.3373 24.1142 38.6848 24.7638C38.0323 25.4134 37.2634 25.7373 36.378 25.7353L28.6827 25.7184C27.1202 25.715 25.8171 26.1809 24.7734 27.1161C23.7557 28.0514 23.2452 29.2612 23.2419 30.7456L23.2364 33.2846L29.7988 33.299C30.6843 33.2749 31.4519 33.5891 32.1015 34.2416C32.7511 34.8941 33.0749 35.676 33.0729 36.5875C33.0709 37.4729 32.7437 38.2404 32.0913 38.89C31.4388 39.5396 30.6698 39.8635 29.7844 39.8615L23.1438 39.8469ZM89.5763 45.7741L89.5589 53.7038C89.5569 54.5892 89.2297 55.3567 88.5772 56.0063C87.9248 56.6559 87.1558 56.9797 86.2704 56.9778L63.0673 56.9268L63.0631 58.8409C63.0607 59.9607 63.5404 60.9123 64.5022 61.6956L66.4127 63.3014C67.4526 64.111 68.4413 64.5168 69.3788 64.5188L86.2538 64.5559C87.1392 64.5579 87.9067 64.8851 88.5563 65.5375C89.206 66.164 89.5298 66.9329 89.5278 67.8444C89.5259 68.7298 89.1856 69.4973 88.5071 70.1468C87.8546 70.7964 87.0987 71.1203 86.2394 71.1184L68.9347 71.0804C67.7889 71.0779 66.5785 70.8408 65.3034 70.3693C64.0545 69.8717 63.1312 69.3619 62.5334 68.8398L59.6093 66.2552C58.6995 65.524 57.9335 64.5067 57.3114 63.2033C56.7153 61.8999 56.4184 60.7013 56.4208 59.6076L56.4538 44.5685C56.4557 43.7092 56.7838 42.551 57.438 41.0941C58.1183 39.6373 58.9672 38.5063 59.9846 37.7013L62.7236 35.5588C64.5237 34.1045 66.5175 33.3797 68.705 33.3845L77.9237 33.4047C80.2414 33.4098 82.4268 34.3782 84.4799 36.3098L86.9356 38.6589C88.703 40.2513 89.5832 42.6231 89.5763 45.7741ZM63.1712 45.2083L63.1601 50.2864L83.0819 50.3302L83.0919 45.7599C83.0946 44.5359 82.7191 43.5976 81.9653 42.9449L80.0549 41.261C79.0671 40.4515 78.1826 40.0459 77.4013 40.0442L69.1592 40.0261C68.1435 40.0239 67.2183 40.3734 66.3834 41.0747L64.4658 42.6721C63.605 43.3212 63.1735 44.1666 63.1712 45.2083ZM111.659 22.5413L111.625 37.9709L114.52 35.6726C116.347 34.1662 118.236 33.4151 120.189 33.4194L126.205 33.4326C128.419 33.4375 130.383 34.197 132.098 35.7112L135.218 38.4134C136.075 39.1705 136.776 40.2528 137.32 41.6602C137.89 43.0677 138.173 44.4485 138.17 45.8027L138.141 59.0839C138.138 60.2818 137.875 61.5443 137.351 62.8713C136.828 64.1982 136.226 65.1735 135.548 65.797L132.691 68.486C131.96 69.1876 130.917 69.8233 129.561 70.3932C128.206 70.9371 127.06 71.2081 126.122 71.206L120.497 71.1936C117.763 71.1876 114.784 69.6576 111.562 66.6037L111.559 67.8927C111.557 68.8042 111.23 69.5847 110.577 70.2343C109.951 70.858 109.182 71.1688 108.271 71.1668C107.359 71.1648 106.579 70.8506 105.929 70.2241C105.305 69.5717 104.995 68.7898 104.997 67.8783L105.096 22.5269C105.098 21.6154 105.425 20.8479 106.078 20.2243C106.73 19.5747 107.499 19.2509 108.385 19.2528C109.296 19.2548 110.064 19.5821 110.687 20.2345C111.337 20.8609 111.661 21.6298 111.659 22.5413ZM125.683 40.0721L121.151 40.0622C120.058 40.0598 119.224 40.3053 118.65 40.7989L112.74 45.825C111.984 46.5004 111.604 47.5152 111.601 48.8694L111.584 56.2912C111.582 57.385 112.01 58.2974 112.868 59.0284L118.131 63.4931C118.885 64.1979 119.678 64.5512 120.512 64.553L125.863 64.5648C126.618 64.5664 127.27 64.3335 127.818 63.866L130.44 61.528C131.144 61.0087 131.498 60.2673 131.5 59.3037L131.53 45.4756C131.533 44.3819 131.183 43.5478 130.481 42.9733L128.103 40.9759C127.375 40.3753 126.568 40.0741 125.683 40.0721ZM179.677 71.3236L159.833 71.28C158.921 71.278 158.141 70.9508 157.491 70.2983C156.868 69.6199 156.557 68.8249 156.559 67.9135C156.561 67.028 156.875 66.2605 157.502 65.6108C158.154 64.9612 158.936 64.6374 159.848 64.6394L166.41 64.6538L166.495 25.943L159.854 25.9284C158.943 25.9264 158.162 25.6122 157.513 24.9858C156.889 24.3334 156.578 23.5514 156.58 22.64C156.582 21.7285 156.897 20.961 157.523 20.3373C158.175 19.6877 158.957 19.3639 159.869 19.3659L169.869 19.3879C170.754 19.3898 171.522 19.717 172.171 20.3695C172.821 21.022 173.145 21.7909 173.143 22.6763L173.051 64.6684L179.691 64.683C180.577 64.685 181.344 65.0122 181.994 65.6646C182.643 66.3171 182.967 67.086 182.965 67.9715C182.963 68.8829 182.636 69.6765 181.983 70.3521C181.357 71.0018 180.588 71.3256 179.677 71.3236ZM234.654 46.0928L234.637 54.0224C234.635 54.9078 234.307 55.6753 233.655 56.325C233.003 56.9746 232.234 57.2984 231.348 57.2965L208.145 57.2455L208.141 59.1595C208.138 60.2793 208.618 61.2309 209.58 62.0143L211.491 63.62C212.53 64.4296 213.519 64.8354 214.457 64.8375L231.332 64.8746C232.217 64.8765 232.984 65.2037 233.634 65.8562C234.284 66.4826 234.608 67.2516 234.606 68.163C234.604 69.0484 234.263 69.8159 233.585 70.4655C232.932 71.1151 232.177 71.4389 231.317 71.437L214.012 71.399C212.867 71.3965 211.656 71.1595 210.381 70.6879C209.132 70.1904 208.209 69.6806 207.611 69.1584L204.687 66.5739C203.777 65.8427 203.011 64.8254 202.389 63.5219C201.793 62.2185 201.496 61.02 201.499 59.9262L201.532 44.8872C201.534 44.0278 201.862 42.8697 202.516 41.4128C203.196 39.9559 204.045 38.825 205.062 38.0199L207.801 35.8775C209.602 34.4231 211.595 33.6983 213.783 33.7031L223.002 33.7234C225.319 33.7285 227.505 34.6968 229.558 36.6284L232.013 38.9776C233.781 40.57 234.661 42.9417 234.654 46.0928ZM208.249 45.5269L208.238 50.6051L228.16 50.6488L228.17 46.0785C228.172 44.8546 227.797 43.9162 227.043 43.2635L225.133 41.5796C224.145 40.7702 223.26 40.3646 222.479 40.3629L214.237 40.3448C213.221 40.3425 212.296 40.6921 211.461 41.3934L209.544 42.9907C208.683 43.6399 208.251 44.4853 208.249 45.5269Z"
                  fill="#9661FF"
                />
                <path
                  d="M24.8518 40.4159L25.4314 68.2615C25.4504 69.1727 25.1412 69.9606 24.5038 70.625C23.8659 71.2634 23.1044 71.5919 22.2191 71.6103C21.2818 71.6298 20.4812 71.3339 19.8173 70.7226C19.1529 70.0852 18.8112 69.3109 18.7922 68.3997L18.2126 40.5541L14.8539 40.624C13.9427 40.643 13.1548 40.3338 12.4904 39.6965C11.852 39.0586 11.5235 38.297 11.5051 37.4118C11.4872 36.5526 11.7579 35.7916 12.3172 35.1288C12.9019 34.4394 13.702 34.0841 14.7174 34.063L18.1541 33.9914L18.1013 31.4529C18.0314 28.0943 19.119 25.2846 21.3641 23.0238C23.6352 20.7625 26.4892 19.5961 29.9259 19.5246L37.6196 19.3644C38.5308 19.3455 39.3057 19.6549 39.9441 20.2928C40.6085 20.9302 40.9505 21.7175 40.97 22.6548C40.9884 23.54 40.679 24.3148 40.0416 24.9793C39.4043 25.6437 38.643 25.9852 37.7578 26.0036L30.0641 26.1637C28.502 26.1963 27.2099 26.692 26.188 27.651C25.1921 28.6094 24.7096 29.8307 24.7405 31.3147L24.7933 33.8532L31.3544 33.7167C32.2391 33.6722 33.0136 33.9686 33.6781 34.606C34.3425 35.2433 34.6842 36.0177 34.7032 36.9289C34.7216 37.8141 34.4122 38.589 33.7748 39.2534C33.1375 39.9179 32.3762 40.2593 31.491 40.2777L24.8518 40.4159ZM91.403 44.8132L91.568 52.7411C91.5865 53.6264 91.277 54.4012 90.6396 55.0656C90.0023 55.7301 89.241 56.0715 88.3558 56.09L65.1577 56.5728L65.1975 58.4865C65.2208 59.606 65.7223 60.5463 66.7018 61.3073L68.6488 62.8687C69.7071 63.6542 70.7048 64.0371 71.6421 64.0176L88.5135 63.6664C89.3987 63.648 90.1735 63.9575 90.838 64.5948C91.5019 65.2061 91.8433 65.9674 91.8623 66.8787C91.8807 67.7639 91.5582 68.539 90.8949 69.204C90.2575 69.8685 89.5092 70.2096 88.65 70.2275L71.3491 70.5876C70.2035 70.6115 68.988 70.4024 67.7025 69.9603C66.4424 69.4916 65.5076 69.0031 64.8979 68.4949L61.9152 65.9783C60.9888 65.2682 60.1996 64.2688 59.5476 62.98C58.9217 61.6907 58.5973 60.4993 58.5746 59.4058L58.2616 44.3699C58.2437 43.5108 58.5451 42.3454 59.1656 40.8738C59.8122 39.4017 60.6348 38.2515 61.6334 37.4233L64.3225 35.2184C66.0886 33.723 68.0652 32.9525 70.2522 32.907L79.469 32.7152C81.7862 32.6669 83.9933 33.5847 86.0902 35.4686L88.5994 37.7606C90.4029 39.312 91.3374 41.6628 91.403 44.8132ZM64.9919 44.855L65.0976 49.932L85.0151 49.5174L84.92 44.9481C84.8946 43.7244 84.4975 42.795 83.7289 42.1598L81.7803 40.5203C80.7742 39.7338 79.8805 39.3486 79.0995 39.3649L70.8591 39.5364C69.8437 39.5576 68.9267 39.9283 68.1082 40.6486L66.2279 42.2897C65.3822 42.9584 64.9702 43.8136 64.9919 44.855ZM112.945 21.0785L113.266 36.5048L116.108 34.1405C117.899 32.5925 119.771 31.7981 121.724 31.7575L127.738 31.6323C129.951 31.5862 131.933 32.3003 133.682 33.7747L136.863 36.4044C137.738 37.1415 138.463 38.2074 139.039 39.6019C139.641 40.996 139.956 42.3699 139.985 43.7238L140.261 57.0022C140.286 58.1998 140.052 59.468 139.559 60.8067C139.066 62.1453 138.487 63.1342 137.823 63.7731L135.028 66.5272C134.314 67.2453 133.286 67.9049 131.944 68.5059C130.601 69.0808 129.462 69.378 128.524 69.3975L122.9 69.5146C120.167 69.5715 117.154 68.1104 113.862 65.1314L113.889 66.4202C113.908 67.3315 113.599 68.1193 112.961 68.7838C112.349 69.4217 111.588 69.7501 110.677 69.769C109.765 69.788 108.978 69.4918 108.314 68.8805C107.675 68.2426 107.347 67.468 107.328 66.5568L106.384 21.215C106.365 20.3038 106.674 19.5289 107.312 18.8905C107.95 18.2261 108.711 17.8846 109.596 17.8662C110.507 17.8473 111.282 18.1567 111.921 18.7946C112.585 19.4059 112.926 20.1672 112.945 21.0785ZM127.369 38.282L122.838 38.3763C121.745 38.3991 120.917 38.6638 120.354 39.1704L114.562 44.3311C113.821 45.0238 113.465 46.047 113.493 47.4009L113.647 54.8212C113.67 55.9147 114.119 56.817 114.993 57.5281L120.358 61.8705C121.128 62.5578 121.929 62.8928 122.762 62.8754L128.113 62.764C128.868 62.7483 129.514 62.5005 130.051 62.0204L132.619 59.6227C133.311 59.0874 133.647 58.338 133.627 57.3747L133.339 43.5496C133.316 42.456 132.947 41.6302 132.232 41.072L129.809 39.1299C129.067 38.5462 128.254 38.2636 127.369 38.282ZM182.067 68.283L162.228 68.696C161.317 68.715 160.529 68.4058 159.864 67.7684C159.225 67.1045 158.896 66.3169 158.877 65.4056C158.859 64.5204 159.155 63.7458 159.767 63.0819C160.404 62.4175 161.178 62.0758 162.09 62.0568L168.651 61.9202L167.845 23.2177L161.206 23.3559C160.295 23.3748 159.507 23.0787 158.843 22.4674C158.205 21.8295 157.876 21.0549 157.857 20.1436C157.838 19.2324 158.135 18.4578 158.746 17.8199C159.384 17.1555 160.158 16.8138 161.069 16.7948L171.067 16.5867C171.952 16.5683 172.727 16.8777 173.392 17.5151C174.056 18.1524 174.398 18.9137 174.416 19.799L175.29 61.782L181.929 61.6438C182.814 61.6254 183.589 61.9349 184.254 62.5722C184.918 63.2096 185.26 63.9709 185.278 64.8561C185.297 65.7674 184.988 66.5682 184.351 67.2587C183.74 67.9226 182.979 68.2641 182.067 68.283ZM236.45 41.794L236.615 49.722C236.633 50.6072 236.324 51.382 235.686 52.0465C235.049 52.7109 234.288 53.0524 233.402 53.0708L210.204 53.5537L210.244 55.4673C210.268 56.5869 210.769 57.5272 211.749 58.2882L213.696 59.8496C214.754 60.635 215.752 61.018 216.689 60.9985L233.56 60.6473C234.445 60.6289 235.22 60.9383 235.885 61.5757C236.549 62.187 236.89 62.9483 236.909 63.8595C236.927 64.7448 236.605 65.5199 235.942 66.1849C235.304 66.8493 234.556 67.1905 233.697 67.2084L216.396 67.5685C215.25 67.5923 214.035 67.3832 212.749 66.9411C211.489 66.4724 210.554 65.984 209.945 65.4757L206.962 62.9591C206.035 62.2491 205.246 61.2497 204.594 59.9609C203.968 58.6715 203.644 57.4801 203.621 56.3866L203.308 41.3508C203.29 40.4916 203.592 39.3262 204.212 37.8547C204.859 36.3825 205.681 35.2324 206.68 34.4041L209.369 32.1992C211.135 30.7038 213.112 29.9334 215.299 29.8878L224.516 29.696C226.833 29.6478 229.04 30.5656 231.137 32.4494L233.646 34.7415C235.45 36.2928 236.384 38.6436 236.45 41.794ZM210.039 41.8358L210.144 46.9129L230.062 46.4983L229.967 41.929C229.941 40.7053 229.544 39.7758 228.776 39.1406L226.827 37.5011C225.821 36.7146 224.927 36.3295 224.146 36.3457L215.906 36.5173C214.89 36.5384 213.973 36.9091 213.155 37.6294L211.275 39.2705C210.429 39.9393 210.017 40.7944 210.039 41.8358Z"
                  fill="#2FAD54"
                />
                <path
                  d="M24.4727 38.0117V65.8633C24.4727 66.7747 24.1471 67.556 23.4961 68.207C22.8451 68.832 22.0768 69.1445 21.1914 69.1445C20.2539 69.1445 19.4596 68.832 18.8086 68.207C18.1576 67.556 17.832 66.7747 17.832 65.8633V38.0117H14.4727C13.5612 38.0117 12.7799 37.6862 12.1289 37.0352C11.5039 36.3841 11.1914 35.6159 11.1914 34.7305C11.1914 33.8711 11.4779 33.1159 12.0508 32.4648C12.6497 31.7878 13.457 31.4492 14.4727 31.4492H17.9102V28.9102C17.9102 25.5508 19.056 22.7643 21.3477 20.5508C23.6654 18.3372 26.543 17.2305 29.9805 17.2305H37.6758C38.5872 17.2305 39.3555 17.556 39.9805 18.207C40.6315 18.8581 40.957 19.6523 40.957 20.5898C40.957 21.4753 40.6315 22.2435 39.9805 22.8945C39.3294 23.5456 38.5612 23.8711 37.6758 23.8711H29.9805C28.418 23.8711 27.1159 24.3398 26.0742 25.2773C25.0586 26.2148 24.5508 27.4258 24.5508 28.9102V31.4492H31.1133C31.9987 31.4232 32.7669 31.7357 33.418 32.3867C34.069 33.0378 34.3945 33.819 34.3945 34.7305C34.3945 35.6159 34.069 36.3841 33.418 37.0352C32.7669 37.6862 31.9987 38.0117 31.1133 38.0117H24.4727ZM90.918 43.793V51.7227C90.918 52.6081 90.5924 53.3763 89.9414 54.0273C89.2904 54.6784 88.5221 55.0039 87.6367 55.0039H64.4336V56.918C64.4336 58.0378 64.9154 58.9883 65.8789 59.7695L67.793 61.3711C68.8346 62.1784 69.8242 62.582 70.7617 62.582H87.6367C88.5221 62.582 89.2904 62.9076 89.9414 63.5586C90.5924 64.1836 90.918 64.9518 90.918 65.8633C90.918 66.7487 90.5794 67.5169 89.9023 68.168C89.2513 68.819 88.4961 69.1445 87.6367 69.1445H70.332C69.1862 69.1445 67.9753 68.9102 66.6992 68.4414C65.4492 67.9466 64.5247 67.4388 63.9258 66.918L60.9961 64.3398C60.0846 63.6107 59.3164 62.5951 58.6914 61.293C58.0924 59.9909 57.793 58.793 57.793 57.6992V42.6602C57.793 41.8008 58.1185 40.6419 58.7695 39.1836C59.4466 37.7253 60.293 36.5924 61.3086 35.7852L64.043 33.6367C65.8398 32.1784 67.832 31.4492 70.0195 31.4492H79.2383C81.556 31.4492 83.7435 32.4128 85.8008 34.3398L88.2617 36.6836C90.0326 38.2721 90.918 40.6419 90.918 43.793ZM64.5117 43.2852V48.3633H84.4336V43.793C84.4336 42.569 84.056 41.6315 83.3008 40.9805L81.3867 39.3008C80.3971 38.4935 79.5117 38.0898 78.7305 38.0898H70.4883C69.4727 38.0898 68.5482 38.4414 67.7148 39.1445L65.8008 40.7461C64.9414 41.3971 64.5117 42.2435 64.5117 43.2852ZM112.949 20.5117V35.9414L115.84 33.6367C117.663 32.1263 119.551 31.3711 121.504 31.3711H127.52C129.733 31.3711 131.699 32.1263 133.418 33.6367L136.543 36.332C137.402 37.0872 138.105 38.168 138.652 39.5742C139.225 40.9805 139.512 42.3607 139.512 43.7148V56.9961C139.512 58.194 139.251 59.457 138.73 60.7852C138.21 62.1133 137.611 63.0898 136.934 63.7148L134.082 66.4102C133.353 67.1133 132.311 67.7513 130.957 68.3242C129.603 68.8711 128.457 69.1445 127.52 69.1445H121.895C119.16 69.1445 116.178 67.6211 112.949 64.5742V65.8633C112.949 66.7747 112.624 67.556 111.973 68.207C111.348 68.832 110.579 69.1445 109.668 69.1445C108.757 69.1445 107.975 68.832 107.324 68.207C106.699 67.556 106.387 66.7747 106.387 65.8633V20.5117C106.387 19.6003 106.712 18.832 107.363 18.207C108.014 17.556 108.783 17.2305 109.668 17.2305C110.579 17.2305 111.348 17.556 111.973 18.207C112.624 18.832 112.949 19.6003 112.949 20.5117ZM127.012 38.0117H122.48C121.387 38.0117 120.553 38.2591 119.98 38.7539L114.082 43.793C113.327 44.4701 112.949 45.4857 112.949 46.8398V54.2617C112.949 55.3555 113.379 56.2669 114.238 56.9961L119.512 61.4492C120.267 62.1523 121.061 62.5039 121.895 62.5039H127.246C128.001 62.5039 128.652 62.2695 129.199 61.8008L131.816 59.457C132.52 58.9362 132.871 58.194 132.871 57.2305V43.4023C132.871 42.3086 132.52 41.4753 131.816 40.9023L129.434 38.9102C128.704 38.3112 127.897 38.0117 127.012 38.0117ZM181.074 69.1445H161.23C160.319 69.1445 159.538 68.819 158.887 68.168C158.262 67.4909 157.949 66.6966 157.949 65.7852C157.949 64.8997 158.262 64.1315 158.887 63.4805C159.538 62.8294 160.319 62.5039 161.23 62.5039H167.793V23.793H161.152C160.241 23.793 159.46 23.4805 158.809 22.8555C158.184 22.2044 157.871 21.4232 157.871 20.5117C157.871 19.6003 158.184 18.832 158.809 18.207C159.46 17.556 160.241 17.2305 161.152 17.2305H171.152C172.038 17.2305 172.806 17.556 173.457 18.207C174.108 18.8581 174.434 19.6263 174.434 20.5117V62.5039H181.074C181.96 62.5039 182.728 62.8294 183.379 63.4805C184.03 64.1315 184.355 64.8997 184.355 65.7852C184.355 66.6966 184.03 67.4909 183.379 68.168C182.754 68.819 181.986 69.1445 181.074 69.1445ZM235.996 43.793V51.7227C235.996 52.6081 235.671 53.3763 235.02 54.0273C234.368 54.6784 233.6 55.0039 232.715 55.0039H209.512V56.918C209.512 58.0378 209.993 58.9883 210.957 59.7695L212.871 61.3711C213.913 62.1784 214.902 62.582 215.84 62.582H232.715C233.6 62.582 234.368 62.9076 235.02 63.5586C235.671 64.1836 235.996 64.9518 235.996 65.8633C235.996 66.7487 235.658 67.5169 234.98 68.168C234.329 68.819 233.574 69.1445 232.715 69.1445H215.41C214.264 69.1445 213.053 68.9102 211.777 68.4414C210.527 67.9466 209.603 67.4388 209.004 66.918L206.074 64.3398C205.163 63.6107 204.395 62.5951 203.77 61.293C203.171 59.9909 202.871 58.793 202.871 57.6992V42.6602C202.871 41.8008 203.197 40.6419 203.848 39.1836C204.525 37.7253 205.371 36.5924 206.387 35.7852L209.121 33.6367C210.918 32.1784 212.91 31.4492 215.098 31.4492H224.316C226.634 31.4492 228.822 32.4128 230.879 34.3398L233.34 36.6836C235.111 38.2721 235.996 40.6419 235.996 43.793ZM209.59 43.2852V48.3633H229.512V43.793C229.512 42.569 229.134 41.6315 228.379 40.9805L226.465 39.3008C225.475 38.4935 224.59 38.0898 223.809 38.0898H215.566C214.551 38.0898 213.626 38.4414 212.793 39.1445L210.879 40.7461C210.02 41.3971 209.59 42.2435 209.59 43.2852Z"
                  fill="white"
                />
              </svg>